<svg width="389" height="151"
	xmlns="http://www.w3.org/2000/svg">
	<g>
		<title>Layer 1</title>
		<g id="svg_1" data-custom-element="GroupEditing_layer" class="layer isolate-layer" data-layer-color="#fb0094" data-layer-name="title">
			<path id="svg_2" stroke-miterlimit="2" stroke-width="0" stroke="#40c6c5" fill="#40c6c5" d="m127.008,0l-26.136,0l0,112.968l-70.416,-112.968l-30.456,0l0,151.2l26.136,0l0,-111.024l69.12,111.024l31.752,0l0,-151.2z"/>
			<path id="svg_3" stroke-miterlimit="2" stroke-width="0" stroke="#38d5b9" fill="#38d5b9" d="m123.32589,0zm30.45594,151.2l0,-36.504l43.63212,0c31.75194,0 57.45591,-25.704 57.45591,-57.456c0,-31.536 -25.70397,-57.24 -57.45591,-57.24l61.77594,0l0,151.2l-105.40806,0zm0,-62.64l0,-62.424l43.63212,0c17.27982,0 31.32,14.04 31.32,31.104c0,17.28 -14.04018,31.32 -31.32,31.32l-43.63212,0z"/>
			<path id="svg_4" stroke-miterlimit="2" stroke-width="0" stroke="#30e3ac" fill="#30e3ac" d="m358.10775,108.648l0,-3.672c0,-8.856 -7.344,-16.2 -16.416,-16.2l-36.072,0c-23.544,0 -42.552,-19.224 -42.552,-42.552l0,-3.672c0,-23.544 19.008,-42.552 42.552,-42.552l-46.872,0l0,151.2l46.44,0c-23.328,-0.216 -42.12,-19.224 -42.12,-42.552l26.136,0c0,9.072 7.344,16.416 16.416,16.416l36.072,0c9.072,0 16.416,-7.344 16.416,-16.416zm-16.416,-108.648c23.544,0 42.552,19.008 42.552,42.552l-26.136,0c0,-9.072 -7.344,-16.416 -16.416,-16.416l-36.072,0c-9.072,0 -16.416,7.344 -16.416,16.416l0,3.672c0,8.856 7.344,16.2 16.416,16.2l36.072,0c23.544,0 42.552,19.224 42.552,42.552l0,3.672c0,23.112 -18.36,41.904 -41.256,42.552l45.576,0l0,-151.2l-46.872,0z"/>
		</g>
	</g>
</svg>